<svg width="101" height="49" viewBox="0 0 101 49" fill="none" xmlns="http://www.w3.org/2000/svg">
<g clip-path="url(#clip0_222_3045)">
<path d="M55.7197 37.7355V33.3257H56.0981V37.7355H55.7197Z" fill="#0C4332"/>
<path d="M59.0205 37.7357V34.6103H59.3865V35.1902C59.6141 34.7803 60.0349 34.5226 60.4831 34.5226C61.0506 34.5226 61.5798 34.8255 61.5798 35.6124V37.7357H61.2138V35.6507C61.2138 35.1148 60.8546 34.8379 60.3954 34.8379C59.8786 34.8379 59.3879 35.3231 59.3879 35.966V37.7357H59.0219H59.0205Z" fill="#0C4332"/>
<path d="M64.4258 37.7357V34.6103H64.7918V35.1902C65.0193 34.7803 65.4402 34.5226 65.8884 34.5226C66.4559 34.5226 66.985 34.8255 66.985 35.6124V37.7357H66.619V35.6507C66.619 35.1148 66.2599 34.8379 65.7993 34.8379C65.2825 34.8379 64.7918 35.3231 64.7918 35.966V37.7357H64.4258Z" fill="#0C4332"/>
<path d="M69.5713 36.173C69.5713 35.1271 70.3211 34.5226 71.171 34.5226C72.0209 34.5226 72.7707 35.1271 72.7707 36.173C72.7707 37.2189 72.0209 37.8234 71.171 37.8234C70.3211 37.8234 69.5713 37.2189 69.5713 36.173ZM72.4061 36.173C72.4061 35.3985 71.8769 34.8379 71.171 34.8379C70.465 34.8379 69.9359 35.3985 69.9359 36.173C69.9359 36.9475 70.465 37.5081 71.171 37.5081C71.8769 37.5081 72.4061 36.9475 72.4061 36.173Z" fill="#0C4332"/>
<path d="M76.1097 37.7357L74.8623 34.6104H75.2598L76.3057 37.3313L77.3516 34.6104H77.7492L76.5018 37.7357H76.1111H76.1097Z" fill="#0C4332"/>
<path d="M79.9154 36.8735C79.9154 36.2745 80.4007 35.9661 80.9545 35.8784L82.0689 35.696V35.5452C82.0689 35.0792 81.7605 34.853 81.2561 34.853C80.7023 34.853 80.4185 35.1422 80.4185 35.4383C80.4185 35.4699 80.4185 35.4822 80.4308 35.5329L80.1348 35.6344C80.1101 35.5713 80.0909 35.4767 80.0909 35.3945C80.0909 34.9092 80.5816 34.5254 81.2561 34.5254C82.0182 34.5254 82.4336 34.9092 82.4336 35.5082V36.9572C82.4336 37.3163 82.4719 37.4863 82.6227 37.7385H82.2567C82.1621 37.6247 82.0552 37.404 82.0552 37.0641C81.9099 37.4986 81.4247 37.8262 80.9531 37.8262C80.3102 37.8262 79.9141 37.4232 79.9141 36.8749L79.9154 36.8735ZM82.0703 36.1676V36.0099L81.0175 36.1868C80.5515 36.2622 80.2801 36.5144 80.2801 36.8667C80.2801 37.219 80.557 37.4835 80.986 37.4835C81.6974 37.4835 82.0703 36.7721 82.0703 36.1662V36.1676Z" fill="#0C4332"/>
<path d="M85.4009 36.9859V34.8886H84.8525V34.6117H85.4009V33.7673H85.7668V34.6117H86.5413V34.8886H85.7668V37.0051C85.7668 37.3396 85.9122 37.5096 86.2137 37.5096C86.2836 37.5096 86.3837 37.4904 86.4468 37.4712L86.4783 37.7741C86.3837 37.8057 86.296 37.8248 86.1383 37.8248C85.7353 37.8248 85.4009 37.5671 85.4009 36.9873V36.9859Z" fill="#0C4332"/>
<path d="M89.0869 34.0195V33.515H89.553V34.0195H89.0869ZM89.1376 37.7356V34.6103H89.5036V37.7356H89.1376Z" fill="#0C4332"/>
<path d="M92.0918 36.173C92.0918 35.1271 92.8416 34.5226 93.6915 34.5226C94.5414 34.5226 95.2912 35.1271 95.2912 36.173C95.2912 37.2189 94.5414 37.8234 93.6915 37.8234C92.8416 37.8234 92.0918 37.2189 92.0918 36.173ZM94.9266 36.173C94.9266 35.3985 94.3974 34.8379 93.6915 34.8379C92.9855 34.8379 92.4564 35.3985 92.4564 36.173C92.4564 36.9475 92.9855 37.5081 93.6915 37.5081C94.3974 37.5081 94.9266 36.9475 94.9266 36.173Z" fill="#0C4332"/>
<path d="M97.9248 37.7357V34.6103H98.2908V35.1902C98.5184 34.7803 98.9392 34.5226 99.3874 34.5226C99.9549 34.5226 100.484 34.8255 100.484 35.6124V37.7357H100.118V35.6507C100.118 35.1148 99.7589 34.8379 99.2983 34.8379C98.7815 34.8379 98.2908 35.3231 98.2908 35.966V37.7357H97.9248Z" fill="#0C4332"/>
<path d="M74.3684 25.6521V30.8501H71.9023V18.2814H74.3684V23.4602H82.0064V18.2814H84.4724V30.8501H81.9995V25.6521H74.3684Z" fill="#0C4332"/>
<path d="M65.456 18.2814V26.4759L57.5726 19.1203C56.9942 18.5802 56.2265 18.2814 55.4356 18.2814H53.7002L55.4356 19.8523V30.8501H57.9016V22.8269L66.6047 30.8501H67.9207V18.2814H65.456Z" fill="#0C4332"/>
<path d="M99.1139 27.4409C98.0803 28.2414 96.6972 28.7335 95.0372 28.7376C92.1914 28.7445 90.3628 27.0118 90.3628 24.5485C90.3628 22.0852 92.1915 20.3663 95.0509 20.3663C96.6465 20.3663 98.0803 20.8378 99.107 21.6589L100.302 19.7179C98.9165 18.6857 97.0934 18.0922 94.9837 18.0922C90.6877 18.0922 87.8516 20.7528 87.8516 24.5485C87.8516 28.3442 90.7014 31.0392 94.9974 31.0392C97.2798 31.0392 98.8617 30.5087 100.317 29.3942L99.1139 27.4423V27.4409Z" fill="#0C4332"/>
<path d="M38.5967 8.74753C40.6693 9.30269 42.7995 8.07311 43.356 6.00049C41.2834 5.44532 39.1518 6.67491 38.5967 8.74753Z" fill="#0C4332"/>
<path d="M15.1006 6.7585C16.2686 4.95866 15.7573 2.55294 13.9574 1.38367C12.7881 3.1835 13.3008 5.58922 15.1006 6.7585Z" fill="#0C4332"/>
<path d="M33.6748 20.576C34.7632 17.2258 38.2423 15.2725 41.6678 16.0908C40.4588 17.1504 39.5582 18.5157 39.062 20.0441L37.609 24.5143C36.4945 27.9439 32.9182 29.9275 29.4199 29.0556C30.5988 28.3963 31.4857 27.3175 31.9024 26.0317L33.6748 20.5746V20.576Z" fill="#0C4332"/>
<path d="M45.836 38.3961L42.2336 32.1549C40.9327 29.9014 38.1418 28.9898 35.7607 30.0412C36.8766 30.6197 37.4208 31.0885 38.1007 32.266L40.8696 37.0651C41.8731 38.8046 44.0978 39.4009 45.836 38.3961Z" fill="#0C4332"/>
<path d="M43.9668 31.7094C44.0792 33.8519 45.9078 35.4982 48.0504 35.3858C47.9379 33.2433 46.1093 31.597 43.9668 31.7094Z" fill="#0C4332"/>
<path d="M39.6553 24.4512C43.3153 24.7637 46.5352 22.0509 46.8478 18.391C43.1878 18.0784 39.9678 20.7912 39.6553 24.4512Z" fill="#0C4332"/>
<path d="M37.7822 27.7684C38.8172 27.8452 39.8329 28.1001 40.7815 28.5223L45.3393 30.5524C46.8006 31.2036 48.5127 30.5456 49.1638 29.0843L43.1584 26.41C41.2681 25.5683 39.0475 26.1289 37.7822 27.7684Z" fill="#0C4332"/>
<path d="M24.829 15.0942C21.9791 13.0243 21.1964 9.11208 23.0332 6.10596C23.6665 7.58229 24.6878 8.86123 25.9886 9.80569L29.7912 12.5678C32.7082 14.687 33.4895 18.7021 31.58 21.7603C31.3182 20.4347 30.5643 19.2586 29.4718 18.4649L24.829 15.0942Z" fill="#0C4332"/>
<path d="M45.5363 9.0354L38.4878 10.5337C35.9422 11.0751 34.2123 13.4466 34.4769 16.0373C35.372 15.1546 35.9861 14.7817 37.3158 14.4993L42.7358 13.3479C44.7001 12.9312 45.9544 10.9997 45.5363 9.0354Z" fill="#0C4332"/>
<path d="M30.3627 10.6049C31.791 7.22043 30.2051 3.32056 26.822 1.89221C25.3936 5.27667 26.9796 9.17654 30.3627 10.6049Z" fill="#0C4332"/>
<path d="M32.9384 13.4108C33.3318 12.4499 33.8884 11.5644 34.5834 10.7926L37.9226 7.08467C38.9932 5.8962 38.8972 4.06484 37.7087 2.99426L33.3099 7.87972C31.9254 9.41774 31.7733 11.7028 32.9398 13.4122" fill="#0C4332"/>
<path d="M16.8826 21.8138C14.0328 23.885 10.0712 23.419 7.7793 20.7446C9.38037 20.5979 10.9115 20.0222 12.211 19.0777L16.0136 16.3156C18.9306 14.1964 22.9895 14.694 25.3088 17.4547C23.9682 17.2943 22.6153 17.6466 21.5227 18.4417L16.8813 21.8152L16.8826 21.8138Z" fill="#0C4332"/>
<path d="M17.5182 0.248657L16.7657 7.41509C16.4929 10.0031 18.2159 12.3814 20.7601 12.9311C20.1967 11.8071 20.0322 11.108 20.1748 9.75639L20.7546 4.24585C20.9644 2.24863 19.5154 0.459757 17.5182 0.250028" fill="#0C4332"/>
<path d="M14.3236 15.1641C11.5464 12.7598 7.34634 13.0627 4.94336 15.8399C7.72056 18.2443 11.9206 17.9413 14.3236 15.1641Z" fill="#0C4332"/>
<path d="M17.7869 13.5808C16.9946 12.9091 16.323 12.1072 15.8048 11.208L13.31 6.88731C12.5108 5.50145 10.7384 5.02716 9.35254 5.8277L12.6397 11.5219C13.6746 13.3135 15.8007 14.1662 17.7869 13.5836" fill="#0C4332"/>
<path d="M20.8183 31.4476C21.9081 34.7978 20.2398 38.4221 16.987 39.7751C17.342 38.2083 17.268 36.573 16.7718 35.0445L15.3201 30.5744C14.2057 27.1461 15.9328 23.4381 19.2762 22.0865C18.71 23.312 18.6264 24.7075 19.0445 25.9919L20.8183 31.4476Z" fill="#0C4332"/>
<path d="M0.503906 24.1783L7.08639 27.1091C9.46469 28.1673 12.2583 27.264 13.5661 25.0145C12.3241 25.2023 11.6072 25.1434 10.3667 24.5896L5.30438 22.3346C3.47027 21.5177 1.32089 22.3429 0.503906 24.177" fill="#0C4332"/>
<path d="M5.94772 28.4908C4.5975 26.8225 2.15066 26.5662 0.482422 27.9164C1.83264 29.5846 4.27948 29.841 5.94772 28.4908Z" fill="#0C4332"/>
<path d="M13.7008 31.8274C10.5563 33.7259 9.546 37.8136 11.4445 40.9568C14.5891 39.0583 15.5994 34.9706 13.7008 31.8274Z" fill="#0C4332"/>
<path d="M13.2664 28.044C12.3836 28.5909 11.4131 28.9802 10.3973 29.1954L5.51597 30.2331C3.95054 30.5662 2.95261 32.1042 3.28434 33.6683L9.71467 32.3016C11.7393 31.8712 13.206 30.1125 13.265 28.0426" fill="#0C4332"/>
<path d="M31.1957 30.6827C34.7186 30.6827 37.6507 33.3872 37.9317 36.8992C36.5513 36.0767 34.9735 35.6422 33.3656 35.6422H28.6652C25.0601 35.6422 22.0677 32.854 21.8154 29.2571C22.8065 30.1741 24.1074 30.6841 25.4576 30.6841H31.1943L31.1957 30.6827Z" fill="#0C4332"/>
<path d="M18.0051 47.7557L22.8262 42.4015C24.5684 40.4673 24.5725 37.5311 22.8371 35.5914C22.6315 36.832 22.3532 37.4941 21.4444 38.5043L17.7364 42.6208C16.3931 44.1136 16.5137 46.4124 18.0051 47.7557Z" fill="#0C4332"/>
<path d="M23.787 43.9108C21.7843 44.6798 20.7823 46.9265 21.5526 48.9306C23.5554 48.1616 24.556 45.9135 23.787 43.9108Z" fill="#0C4332"/>
<path d="M29.3574 37.5667C30.1909 41.1445 33.7659 43.3679 37.3436 42.5344C36.5102 38.9567 32.9352 36.7333 29.3574 37.5667Z" fill="#0C4332"/>
<path d="M25.624 36.8116C25.8707 37.8204 25.942 38.8636 25.8323 39.8972L25.3101 44.8594C25.1428 46.4509 26.297 47.8751 27.8885 48.0424L28.5752 41.5037C28.7918 39.4448 27.5718 37.5065 25.6226 36.8102" fill="#0C4332"/>
</g>
<defs>
<clipPath id="clip0_222_3045">
<rect width="99.9998" height="48.6819" fill="white" transform="translate(0.482422 0.248657)"/>
</clipPath>
</defs>
</svg>
